<?xml version="1.0" encoding="UTF-8"?><svg xmlns="http://www.w3.org/2000/svg" viewBox="0 0 170.08 42.52"><defs><style>.cls-1{fill:#575757;}.cls-2{isolation:isolate;}.cls-3{fill:#ababab;mix-blend-mode:overlay;}</style></defs><g class="cls-2"><g id="Ebene_2"><g id="Ebene_1-2"><path class="cls-1" d="M13.77,0H0V14.17H14.17L0,28.35H14.17c8.05,0,14.54-6.72,14.16-14.86C27.97,5.86,21.4,0,13.77,0Z"/><polygon class="cls-3" points="14.17 14.17 0 28.35 28.35 42.52 14.17 14.17"/><g><path d="M56.89,15.59l-.65,4.83c-.82-.56-1.79-.85-2.89-.85-1.57,0-2.52,1.18-2.86,3.52v10.43h-5.28v-12.68c0-1.1-.35-1.66-1.05-1.66-.43,0-.92,.18-1.45,.53l-.18-4.16c1.21-.54,2.51-.81,3.91-.81,1.81,0,3.02,.73,3.62,2.19,.72-1.43,2.04-2.15,3.94-2.15,1.21,0,2.17,.27,2.89,.81Z"/><path d="M70.6,15.09h5.25v13c0,.92,.35,1.37,1.05,1.37,.51,0,.99-.16,1.45-.49l.18,4.09c-1.01,.54-2.23,.81-3.66,.81-2.05,0-3.35-.67-3.91-2.01-1.16,1.34-2.89,2.01-5.21,2.01-3.96,0-5.93-2.4-5.93-7.19V15.09h5.28v10.92c0,1.03,.18,1.81,.54,2.32,.36,.52,1.01,.78,1.95,.78,1.33,0,2.33-.65,3-1.94V15.09Z"/><path d="M87.28,33.52h-5.25V15.09h5.25v1.55c1.09-1.24,2.71-1.87,4.88-1.87,2.32,0,3.92,.9,4.81,2.71,1.13-1.81,2.87-2.71,5.21-2.71,2.1,0,3.62,.59,4.58,1.78,.95,1.19,1.43,2.94,1.43,5.27v6.27c0,.92,.35,1.37,1.05,1.37,.48,0,.96-.16,1.45-.49l.14,4.09c-1.01,.54-2.23,.81-3.66,.81s-2.55-.35-3.22-1.04c-.68-.69-1.01-1.8-1.01-3.33v-6.63c0-2.21-.87-3.31-2.61-3.31-1.11,0-1.94,.69-2.5,2.08v11.88h-5.25v-10.64c0-2.21-.86-3.31-2.57-3.31-1.25,0-2.17,.75-2.75,2.26v11.7Z"/><path d="M128.32,25.81h-10.13c.19,2.58,1.58,3.88,4.16,3.88,1.62,0,3.09-.56,4.42-1.69l1.92,3.81c-1.83,1.48-4.21,2.22-7.13,2.22s-4.92-.88-6.35-2.64c-1.44-1.76-2.15-4.1-2.15-7.01s.78-5.21,2.33-7.03c1.56-1.82,3.61-2.73,6.17-2.73s4.25,.68,5.45,2.04c1.19,1.36,1.79,3.15,1.79,5.36,0,1.32-.16,2.58-.47,3.81Zm-9.84-3.73h5.57c.07-.23,.11-.51,.11-.81,0-1.6-.86-2.4-2.57-2.4-.94,0-1.68,.29-2.21,.86-.53,.58-.83,1.36-.9,2.34Z"/><path d="M143.92,8.5h5.25V27.78c0,1.13,.35,1.69,1.05,1.69,.48,0,.96-.18,1.45-.53l.18,4.12c-1.01,.54-2.32,.81-3.91,.81-1.83,0-3.04-.75-3.62-2.26-1.16,1.5-2.82,2.26-4.99,2.26s-4.03-.84-5.35-2.52c-1.33-1.68-1.99-4.03-1.99-7.07s.66-5.34,1.99-7.01c1.33-1.67,3.11-2.5,5.35-2.5,1.86,0,3.39,.55,4.6,1.66v-7.93Zm-6.59,15.86c0,1.55,.33,2.77,.98,3.65s1.54,1.32,2.68,1.32,2.16-.46,2.93-1.37v-7.26c-.75-.92-1.72-1.37-2.93-1.37s-2.06,.44-2.7,1.32c-.64,.88-.96,2.12-.96,3.72Z"/><path d="M169.61,25.81h-10.13c.19,2.58,1.58,3.88,4.16,3.88,1.62,0,3.09-.56,4.42-1.69l1.92,3.81c-1.83,1.48-4.21,2.22-7.13,2.22s-4.92-.88-6.35-2.64c-1.44-1.76-2.15-4.1-2.15-7.01s.78-5.21,2.33-7.03c1.56-1.82,3.61-2.73,6.17-2.73s4.25,.68,5.45,2.04c1.19,1.36,1.79,3.15,1.79,5.36,0,1.32-.16,2.58-.47,3.81Zm-9.84-3.73h5.57c.07-.23,.11-.51,.11-.81,0-1.6-.86-2.4-2.57-2.4-.94,0-1.68,.29-2.21,.86-.53,.58-.83,1.36-.9,2.34Z"/></g></g></g></g></svg>