<?xml version="1.0" encoding="UTF-8"?><svg xmlns="http://www.w3.org/2000/svg" viewBox="0 0 750 500"><defs><style>.cls-1{fill:#da968f;}.cls-2{fill:#fdcd39;}.cls-3{fill:#b62f20;}.cls-4{fill:#fdd96b;}.cls-5{fill:#fcc008;}.cls-6{fill:#004e7d;}.cls-7{fill:#7fa6be;}</style></defs><g id="BACKGROUND"><rect class="cls-4" y=".1" width="750" height="500"/></g><g id="OBJECTS"><g><rect class="cls-5" x="179.07" y="157.04" width="78.37" height="78.37"/><rect class="cls-5" x="257.44" y="157.04" width="78.37" height="78.37"/><rect class="cls-5" x="139.49" y="264.8" width="78.37" height="78.37"/><rect class="cls-5" x="100.7" y="264.8" width="39.19" height="78.37"/><rect class="cls-5" x="217.86" y="264.8" width="78.37" height="78.37"/><rect class="cls-5" x="296.23" y="264.8" width="78.37" height="78.37"/><rect class="cls-5" x="374.6" y="264.8" width="78.37" height="78.37"/><rect class="cls-5" x="374.6" y="264.8" width="39.19" height="78.37"/><rect class="cls-5" x="452.97" y="264.8" width="78.37" height="78.37"/><rect class="cls-5" x="452.97" y="264.8" width="39.19" height="39.19"/><rect class="cls-5" x="100.7" y="157.04" width="78.37" height="78.37"/><rect class="cls-5" x="100.7" y="157.04" width="39.19" height="39.19"/><rect class="cls-5" x="100.7" y="196.22" width="78.37" height="39.19"/><rect class="cls-5" x="335.81" y="157.04" width="78.37" height="78.37"/><rect class="cls-5" x="648.9" y=".1" width="101.1" height="156.94"/><rect class="cls-2" x="649.3" y="157.04" width="78.37" height="78.37"/><path class="cls-2" d="M688.48,78.67h0c21.63,0,39.19,17.56,39.19,39.19v39.19h-78.37v-39.19c0-21.63,17.56-39.19,39.19-39.19Z"/><rect class="cls-2" x="100.7" y="421.54" width="78.37" height="78.37"/><rect class="cls-5" x="179.07" y="421.54" width="78.37" height="78.37"/><path class="cls-2" d="M139.89,343.17h0c21.63,0,39.19,17.56,39.19,39.19v39.19H100.7v-39.19c0-21.63,17.56-39.19,39.19-39.19Z"/><rect class="cls-2" x="257.44" y="343.17" width="78.37" height="78.37" transform="translate(678.98 85.72) rotate(90)"/><path class="cls-2" d="M335.81,421.54v-78.37h39.19c21.64,0,39.19,17.54,39.19,39.19h0c0,21.64-17.54,39.19-39.19,39.19h-39.19Z"/><path class="cls-5" d="M61.52,421.73h0c21.63,0,39.19,17.56,39.19,39.19v39.19H22.33v-39.19c0-21.63,17.56-39.19,39.19-39.19Z"/><path class="cls-2" d="M374.52,78.67h0c21.63,0,39.19,17.56,39.19,39.19v39.19h-78.37v-39.19c0-21.63,17.56-39.19,39.19-39.19Z"/><rect class="cls-5" y=".1" width="335.81" height="156.94"/><path class="cls-2" d="M61.52,157.04h0c-21.64,0-39.19-17.54-39.19-39.19h0c0-21.64,17.54-39.19,39.19-39.19h0c21.64,0,39.19,17.54,39.19,39.19h0c0,21.64-17.54,39.19-39.19,39.19Z"/><rect class="cls-5" x="590.52" y="176.63" width="78.37" height="39.19" transform="translate(825.92 -433.48) rotate(90)"/><rect class="cls-5" x="217.86" y="290.92" width="78.37" height="26.12"/><rect class="cls-5" x="609.71" y="264.8" width="39.19" height="78.37"/><polygon class="cls-5" points="296.63 157.04 335.81 235.41 335.81 157.04 296.63 157.04"/><rect class="cls-5" x="492.56" y="157.04" width="78.37" height="78.37"/><rect class="cls-5" x="492.56" y="157.04" width="39.19" height="78.37"/><rect class="cls-5" x="100.7" y="235.41" width="548.2" height="29.39"/><path class="cls-5" d="M688.48,132.63h0c-8.16,0-14.78-6.62-14.78-14.78h0c0-8.16,6.62-14.78,14.78-14.78h0c8.16,0,14.78,6.62,14.78,14.78h0c0,8.16-6.62,14.78-14.78,14.78Z"/><path class="cls-5" d="M61.52,132.63h0c-8.16,0-14.78-6.62-14.78-14.78h0c0-8.16,6.62-14.78,14.78-14.78h0c8.16,0,14.78,6.62,14.78,14.78h0c0,8.16-6.62,14.78-14.78,14.78Z"/><path class="cls-5" d="M570.53,343.17h78.37v156.74h-78.37c-43.25,0-78.37-35.12-78.37-78.37h0c0-43.25,35.12-78.37,78.37-78.37Z"/><g><path class="cls-2" d="M688.48,421.53h0c21.63,0,39.19,17.56,39.19,39.19v39.19h-78.37v-39.19c0-21.63,17.56-39.19,39.19-39.19Z"/><path class="cls-5" d="M609.7,499.69h0c-21.64,0-39.19-17.54-39.19-39.19h0c0-21.64,17.54-39.19,39.19-39.19h0c21.64,0,39.19,17.54,39.19,39.19h0c0,21.64-17.54,39.19-39.19,39.19Z"/><path class="cls-2" d="M296.63,499.69h0c-21.64,0-39.19-17.54-39.19-39.19h0c0-21.64,17.54-39.19,39.19-39.19h0c21.64,0,39.19,17.54,39.19,39.19h0c0,21.64-17.54,39.19-39.19,39.19Z"/><path class="cls-2" d="M609.7,475.28h0c-8.16,0-14.78-6.62-14.78-14.78h0c0-8.16,6.62-14.78,14.78-14.78h0c8.16,0,14.78,6.62,14.78,14.78h0c0,8.16-6.62,14.78-14.78,14.78Z"/><rect class="cls-2" x="648.89" y="264.8" width="78.37" height="78.37" rx="39.19" ry="39.19"/><path class="cls-5" d="M688.07,318.76h0c-8.16,0-14.78-6.62-14.78-14.78h0c0-8.16,6.62-14.78,14.78-14.78h0c8.16,0,14.78,6.62,14.78,14.78h0c0,8.16-6.62,14.78-14.78,14.78Z"/></g><rect class="cls-2" x="178.68" y="-.1" width="78.77" height="157.14"/><polygon class="cls-5" points="178.68 -.1 257.25 78.47 335.81 -.1 178.68 -.1"/><rect class="cls-5" y=".1" width="178.68" height="78.37"/><rect class="cls-2" y="235.41" width="100.7" height="107.76"/><circle class="cls-5" cx="492.26" cy="78.57" r="78.47"/><path class="cls-2" d="M570.72,78.57C570.72,35.23,535.59,.1,492.26,.1V157.04c43.34,0,78.47-35.13,78.47-78.47Z"/></g><g><polygon class="cls-7" points="257.44 235.41 296.63 157.04 335.81 235.41 257.44 235.41"/><polygon class="cls-6" points="296.63 157.04 296.63 208.47 310.1 235.41 335.81 235.41 296.63 157.04"/><polygon class="cls-3" points="283.16 235.41 296.63 208.47 310.1 235.41 283.16 235.41"/></g><g><rect class="cls-7" x="335.81" y="157.04" width="52.66" height="78.37"/><path class="cls-6" d="M388.47,157.04v51.43c14.2,0,25.72-11.51,25.72-25.72s-11.51-25.72-25.72-25.72Z"/><path class="cls-3" d="M388.47,157.04c-14.2,0-25.72,11.51-25.72,25.72s11.51,25.72,25.72,25.72v-51.43Z"/></g><g><rect class="cls-6" x="466.23" y="157.04" width="26.33" height="78.37"/><rect class="cls-3" x="414.19" y="157.04" width="27.55" height="78.37"/><rect class="cls-5" x="441.74" y="209.28" width="24.49" height="26.12"/><rect class="cls-5" x="441.74" y="157.04" width="24.49" height="26.12"/><rect class="cls-7" x="441.74" y="183.16" width="24.49" height="26.12"/></g><g><rect class="cls-6" x="139.49" y="264.8" width="39.19" height="78.37"/><path class="cls-7" d="M178.68,264.8v78.37c21.64,0,39.19-17.54,39.19-39.19s-17.54-39.19-39.19-39.19Z"/></g><g><path class="cls-3" d="M335.83,303.98h58.78v-39.19h-58.78c-10.82,0-19.59,8.77-19.59,19.59h0c0,10.82,8.77,19.59,19.59,19.59Z"/><circle class="cls-1" cx="335.83" cy="284.39" r="19.59"/><path class="cls-6" d="M336.03,303.98h58.57v39.19h-58.57c-10.81,0-19.59-8.78-19.59-19.59h0c0-10.81,8.78-19.59,19.59-19.59Z" transform="translate(711.04 647.15) rotate(-180)"/><circle class="cls-7" cx="375.01" cy="323.57" r="19.59" transform="translate(-96.05 170.49) rotate(-22.79)"/><path class="cls-3" d="M375.01,343.17c-10.82,0-19.59-8.77-19.59-19.59s8.77-19.59,19.59-19.59v39.19Z"/></g><g><path class="cls-6" d="M423.79,264.8h0c9.5,0,17.2,7.7,17.2,17.2v61.17h-34.4v-61.17c0-9.5,7.7-17.2,17.2-17.2Z"/><circle class="cls-1" cx="423.79" cy="282" r="17.2" transform="translate(13.89 583.84) rotate(-70.01)"/><path class="cls-3" d="M440.99,282c0-9.5-7.7-17.2-17.2-17.2v34.4c9.5,0,17.2-7.7,17.2-17.2Z"/></g><g><path class="cls-6" d="M530.34,303.98c0,21.64-17.54,39.19-39.19,39.19s-39.19-17.54-39.19-39.19,17.54-39.19,39.19-39.19v39.19h39.19"/><path class="cls-1" d="M530.34,303.98h-39.19v39.19c21.64,0,39.19-17.54,39.19-39.19Z"/></g><g><path class="cls-6" d="M100.7,196.22c0,21.64,17.54,39.19,39.19,39.19s39.19-17.54,39.19-39.19H100.7Z"/><path class="cls-7" d="M139.89,157.04c-21.64,0-39.19,17.54-39.19,39.19h39.19v-39.19Z"/></g><g><rect class="cls-3" x="531.34" y="264.8" width="78.37" height="78.37"/><rect class="cls-6" x="531.34" y="264.8" width="39.19" height="78.37"/><polygon class="cls-7" points="609.7 343.17 570.52 343.17 531.34 264.8 570.53 264.8 609.7 343.17"/></g><g><rect class="cls-6" x="179.07" y="157.04" width="39.19" height="78.37"/><g><polygon class="cls-6" points="179.07 157.04 257.44 235.41 179.07 235.41 179.07 157.04"/><path class="cls-7" d="M218.26,196.22v12.25c3.38,0,6.6-.66,9.55-1.84,.2-.08,.41-.16,.61-.25l-10.16-10.16Z"/><path class="cls-7" d="M218.26,208.47h0c-14.2,0-25.72-11.51-25.72-25.72,0-3.61,.75-7.04,2.09-10.16l-15.56-15.56v78.37h39.19v-26.94h0Z"/><path class="cls-3" d="M194.63,172.59c-1.34,3.12-2.09,6.55-2.09,10.16,0,14.2,11.51,25.72,25.72,25.72v-12.25l-23.63-23.63Z"/></g><circle class="cls-3" cx="218.26" cy="182.75" r="25.72" transform="translate(-55.76 105.62) rotate(-24.22)"/><path class="cls-1" d="M218.26,157.04v51.43c14.2,0,25.72-11.51,25.72-25.72s-11.51-25.72-25.72-25.72Z"/></g><g><rect class="cls-7" x="227.86" y="264.8" width="65.51" height="26.12"/><rect class="cls-6" x="227.86" y="290.92" width="39.19" height="26.12"/><rect class="cls-7" x="227.86" y="317.04" width="65.51" height="26.12"/><circle class="cls-3" cx="267.05" cy="303.98" r="13.06" transform="translate(-120.63 419.84) rotate(-65.34)"/><circle class="cls-3" cx="293.38" cy="277.86" r="13.06"/><circle class="cls-3" cx="293.38" cy="330.1" r="13.06"/></g><g><path class="cls-6" d="M531.74,157.04h0c9.5,0,17.2,7.7,17.2,17.2v61.17h-34.4v-61.17c0-9.5,7.7-17.2,17.2-17.2Z"/><circle class="cls-1" cx="531.74" cy="174.24" r="17.2"/><path class="cls-3" d="M548.94,174.24c0-9.5-7.7-17.2-17.2-17.2v34.4c9.5,0,17.2-7.7,17.2-17.2Z"/></g><circle class="cls-6" cx="629.31" cy="303.98" r="13.06" transform="translate(-30.63 534.02) rotate(-45)"/><circle class="cls-3" cx="120.3" cy="303.98" r="13.06" transform="translate(-107.17 69.17) rotate(-22.5)"/><g><rect class="cls-6" x="570.93" y="157.04" width="39.19" height="78.37"/><path class="cls-1" d="M637.82,168.51c-7.09-7.09-16.89-11.48-27.71-11.48-21.64,0-39.19,17.54-39.19,39.19s17.54,39.19,39.19,39.19c10.82,0,20.62-4.39,27.71-11.48l-27.71-27.71,27.71-27.71Z"/><path class="cls-3" d="M622.28,184.06c-3.11-3.11-7.41-5.04-12.16-5.04-9.5,0-17.2,7.7-17.2,17.2s7.7,17.2,17.2,17.2c4.75,0,9.05-1.93,12.16-5.04l-12.16-12.16,12.16-12.16Z"/></g></g></svg>