<?xml version="1.0" encoding="utf-8"?>
<!-- Generator: Adobe Illustrator 26.3.1, SVG Export Plug-In . SVG Version: 6.00 Build 0)  -->
<svg version="1.1" id="Ebene_1" xmlns="http://www.w3.org/2000/svg" xmlns:xlink="http://www.w3.org/1999/xlink" x="0px" y="0px"
	 viewBox="0 0 170.1 42.5" style="enable-background:new 0 0 170.1 42.5;" xml:space="preserve">
<style type="text/css">
	.st0{fill:#FFFFFF;}
	.st1{fill:#E5E5E5;}
	.st2{fill:#CCCCCC;}
</style>
<g>
	<g id="_-farbig_Weiss">
		<g>
			<path class="st0" d="M42.8,35.1v-3.1l2.4-0.5v-12l-2.7-0.5v-3.2h7.4l0.2,2.4l0,0.4c0.5-1,1-1.8,1.7-2.4s1.5-0.8,2.4-0.8
				c0.3,0,0.6,0,1,0.1s0.7,0.1,1,0.2l-0.5,4.8l-2.5-0.1c-0.7,0-1.3,0.1-1.8,0.4s-0.8,0.7-1.2,1.2v9.5l2.4,0.5v3.1H42.8L42.8,35.1z"
				/>
			<path class="st0" d="M66.5,35.4c-2,0-3.5-0.7-4.7-1.9s-1.7-3.3-1.7-6.1v-8.1l-2.1-0.5v-3.2h7.2v11.8c0,1.4,0.2,2.4,0.7,3
				c0.5,0.6,1.2,0.9,2.1,0.9c0.8,0,1.4-0.2,2-0.5s1.1-0.7,1.4-1.3V19.3l-2.2-0.5v-3.2h7.3v15.7l2.3,0.5V35h-6.7l-0.4-2.5
				c-0.6,0.9-1.3,1.6-2.2,2.1C68.6,35.2,67.6,35.4,66.5,35.4L66.5,35.4z"/>
			<path class="st0" d="M81.2,35.1v-3.1l2.4-0.5v-12l-2.7-0.5v-3.2h7.4l0.2,2.6c0.6-0.9,1.4-1.7,2.3-2.2s2-0.8,3.2-0.8
				s2.2,0.3,3.1,0.8s1.5,1.4,1.9,2.5c0.6-1,1.3-1.8,2.3-2.4s2-0.9,3.3-0.9c1.9,0,3.3,0.7,4.4,2s1.6,3.3,1.6,5.9v8.2l2.4,0.5v3.1
				h-9.7v-3.1l2.2-0.5v-8.2c0-1.4-0.2-2.4-0.7-3s-1.1-0.8-2-0.8c-0.8,0-1.5,0.2-2,0.7s-0.9,1.1-1.2,1.8v9.5l2.1,0.5V35h-9.2v-3.1
				l2.1-0.5v-8.2c0-1.4-0.2-2.4-0.7-3s-1.1-0.9-2-0.9c-0.7,0-1.3,0.2-1.9,0.5s-0.9,0.7-1.3,1.3v10.3l2.2,0.5V35L81.2,35.1L81.2,35.1
				z"/>
			<path class="st0" d="M123,35.4c-1.8,0-3.4-0.4-4.7-1.2s-2.4-1.9-3.1-3.4s-1.1-3.1-1.1-4.9v-0.7c0-1.9,0.4-3.6,1-5.1
				s1.7-2.7,2.9-3.5s2.8-1.3,4.5-1.3c1.7,0,3.1,0.3,4.3,1s2,1.7,2.6,3s0.9,2.9,0.9,4.7v2.8h-11.1l0,0.1c0.1,0.8,0.3,1.6,0.6,2.3
				s0.8,1.2,1.4,1.6s1.4,0.6,2.3,0.6s1.8-0.1,2.6-0.4s1.6-0.6,2.4-1.1l1.4,3.2c-0.8,0.7-1.8,1.2-2.9,1.6S124.6,35.4,123,35.4
				L123,35.4z M119.4,23.5h6.3V23c0-0.8-0.1-1.5-0.3-2s-0.5-1-1-1.3s-1-0.5-1.7-0.5s-1.2,0.2-1.7,0.5s-0.8,0.9-1.1,1.5
				C119.6,21.9,119.5,22.6,119.4,23.5L119.4,23.5L119.4,23.5z"/>
			<path class="st0" d="M140,35.4c-1.5,0-2.8-0.4-3.9-1.2s-1.9-1.9-2.5-3.3s-0.9-3.1-0.9-5v-0.4c0-2,0.3-3.8,0.9-5.4
				s1.4-2.7,2.5-3.6s2.3-1.3,3.8-1.3c1,0,1.9,0.2,2.7,0.6s1.4,1,2,1.8v-7l-2.7-0.5V7.1h7.8v24.3l2.4,0.5v3.1h-6.8l-0.4-2.4
				c-0.6,0.9-1.3,1.6-2.1,2S141.1,35.4,140,35.4L140,35.4z M141.5,31.4c0.7,0,1.3-0.2,1.9-0.5s1-0.8,1.3-1.3v-8.2
				c-0.4-0.6-0.8-1.1-1.3-1.4s-1.1-0.5-1.8-0.5c-0.9,0-1.5,0.3-2.1,0.8s-0.9,1.2-1.2,2.2s-0.4,2-0.4,3.2v0.4c0,1.7,0.3,3,0.8,4
				S140.2,31.4,141.5,31.4L141.5,31.4z"/>
			<path class="st0" d="M162.7,35.4c-1.8,0-3.4-0.4-4.7-1.2s-2.4-1.9-3.1-3.4s-1.1-3.1-1.1-4.9v-0.7c0-1.9,0.4-3.6,1-5.1
				s1.7-2.7,2.9-3.5s2.8-1.3,4.5-1.3c1.7,0,3.1,0.3,4.3,1s2,1.7,2.6,3s0.9,2.9,0.9,4.7v2.8H159l0,0.1c0.1,0.8,0.3,1.6,0.6,2.3
				s0.8,1.2,1.4,1.6s1.4,0.6,2.3,0.6s1.8-0.1,2.6-0.4s1.6-0.6,2.4-1.1l1.4,3.2c-0.8,0.7-1.8,1.2-2.9,1.6S164.2,35.4,162.7,35.4
				L162.7,35.4z M159.1,23.5h6.3V23c0-0.8-0.1-1.5-0.3-2s-0.5-1-1-1.3s-1-0.5-1.7-0.5s-1.2,0.2-1.7,0.5s-0.8,0.9-1.1,1.5
				C159.3,21.9,159.1,22.6,159.1,23.5L159.1,23.5L159.1,23.5z"/>
		</g>
		<path class="st1" d="M13.8,0H0v14.2h14.2L0,28.3h14.2c8.1,0,14.5-6.7,14.2-14.9C28,5.9,21.4,0,13.8,0L13.8,0z"/>
		<polygon class="st2" points="14.2,14.2 0,28.4 28.4,42.5 		"/>
	</g>
</g>
</svg>
